<svg xmlns="http://www.w3.org/2000/svg" viewBox="0 0 45 45"><defs><linearGradient id="pw" x1="22.5" y1="5" x2="22.5" y2="40" gradientUnits="userSpaceOnUse"><stop offset="0" stop-color="#fffef8"/><stop offset=".55" stop-color="#f1ebda"/><stop offset="1" stop-color="#cbc1a4"/></linearGradient><linearGradient id="pb" x1="22.5" y1="5" x2="22.5" y2="40" gradientUnits="userSpaceOnUse"><stop offset="0" stop-color="#5b5750"/><stop offset=".45" stop-color="#36332d"/><stop offset="1" stop-color="#1a1814"/></linearGradient></defs><g fill="none" fill-rule="evenodd" stroke="#15130f" stroke-linecap="round" stroke-linejoin="round" stroke-width="1.5"><g fill="url(#pb)" stroke-linecap="butt"><path d="M9 36c3.4-1 10.1.4 13.5-2 3.4 2.4 10.1 1 13.5 2 0 0 1.6.5 3 2-.7 1-1.6 1-3 .5-3.4-1-10.1.5-13.5-1-3.4 1.5-10.1 0-13.5 1-1.4.5-2.3.5-3-.5 1.4-2 3-2 3-2z"/><path d="M15 32c2.5 2.5 12.5 2.5 15 0 .5-1.5 0-2 0-2 0-2.5-2.5-4-2.5-4 5.5-1.5 6-11.5-5-15.5-11 4-10.5 14-5 15.5 0 0-2.5 1.5-2.5 4 0 0-.5.5 0 2z"/><path d="M25 8a2.5 2.5 0 1 1-5 0 2.5 2.5 0 1 1 5 0z"/></g><path stroke="#d7d0be" stroke-linejoin="miter" d="M17.5 26h10M15 30h15m-7.5-14.5v5M20 18h5"/></g></svg>