<svg xmlns="http://www.w3.org/2000/svg" viewBox="0 0 45 45"><defs><linearGradient id="pw" x1="22.5" y1="5" x2="22.5" y2="40" gradientUnits="userSpaceOnUse"><stop offset="0" stop-color="#fffef8"/><stop offset=".55" stop-color="#f1ebda"/><stop offset="1" stop-color="#cbc1a4"/></linearGradient><linearGradient id="pb" x1="22.5" y1="5" x2="22.5" y2="40" gradientUnits="userSpaceOnUse"><stop offset="0" stop-color="#5b5750"/><stop offset=".45" stop-color="#36332d"/><stop offset="1" stop-color="#1a1814"/></linearGradient></defs><g fill="none" fill-rule="evenodd" stroke="#15130f" stroke-linecap="round" stroke-linejoin="round" stroke-width="1.5"><path stroke-linejoin="miter" d="M22.5 11.6V6"/><path fill="url(#pb)" stroke-linecap="butt" stroke-linejoin="miter" d="M22.5 25s4.5-7.5 3-10.5c0 0-1-2.5-3-2.5s-3 2.5-3 2.5c-1.5 3 3 10.5 3 10.5"/><path fill="url(#pb)" d="M11.5 37a22.3 22.3 0 0 0 21 0v-7s9-4.5 6-10.5c-4-6.5-13.5-3.5-16 4V27v-3.5c-3.5-7.5-13-10.5-16-4-3 6 5 10 5 10z"/><path stroke-linejoin="miter" d="M20 8h5"/><path stroke="#d7d0be" d="M32 29.5s8.5-4 6-9.7C34.1 14 25 18 22.5 24.6v2.1-2.1C20 18 9.9 14 7 19.9c-2.5 5.6 4.8 9 4.8 9"/><path stroke="#d7d0be" d="M11.5 30c5.5-3 15.5-3 21 0m-21 3.5c5.5-3 15.5-3 21 0m-21 3.5c5.5-3 15.5-3 21 0"/></g></svg>