<svg xmlns="http://www.w3.org/2000/svg" viewBox="0 0 45 45"><defs><linearGradient id="pw" x1="22.5" y1="5" x2="22.5" y2="40" gradientUnits="userSpaceOnUse"><stop offset="0" stop-color="#fffef8"/><stop offset=".55" stop-color="#f1ebda"/><stop offset="1" stop-color="#cbc1a4"/></linearGradient><linearGradient id="pb" x1="22.5" y1="5" x2="22.5" y2="40" gradientUnits="userSpaceOnUse"><stop offset="0" stop-color="#5b5750"/><stop offset=".45" stop-color="#36332d"/><stop offset="1" stop-color="#1a1814"/></linearGradient></defs><g fill="none" fill-rule="evenodd" stroke="#15130f" stroke-linecap="round" stroke-linejoin="round" stroke-width="1.5"><path fill="url(#pb)" d="M22 10c10.5 1 16.5 8 16 29H15c0-9 10-6.5 8-21"/><path fill="url(#pb)" d="M24 18c.38 2.91-5.55 7.37-8 9-3 2-2.82 4.34-5 4-1.04-.94 1.41-3.04 0-3-1 0 .19 1.23-1 2-1 0-4 1-4-4 0-2 6-12 6-12s1.89-1.9 2-3.5c-.73-1-.5-2-.5-3 1-1 3 2.5 3 2.5h2s.78-2 2.5-3c1 0 1 3 1 3"/><path fill="#d7d0be" stroke="#d7d0be" d="M9.5 25.5a.5.5 0 1 1-1 0 .5.5 0 1 1 1 0m5.43-9.75a.5 1.5 30 1 1-.86-.5.5 1.5 30 1 1 .86.5"/><path fill="#d7d0be" stroke="none" d="m24.55 10.4-.45 1.45.5.15c3.15 1 5.65 2.49 7.9 6.75S35.75 29.06 35.25 39l-.05.5h2.25l.05-.5c.5-10.06-.88-16.85-3.25-21.34s-5.79-6.64-9.19-7.16z"/></g></svg>