<svg xmlns="http://www.w3.org/2000/svg" viewBox="0 0 45 45"><defs><linearGradient id="pw" x1="22.5" y1="5" x2="22.5" y2="40" gradientUnits="userSpaceOnUse"><stop offset="0" stop-color="#fffef8"/><stop offset=".55" stop-color="#f1ebda"/><stop offset="1" stop-color="#cbc1a4"/></linearGradient><linearGradient id="pb" x1="22.5" y1="5" x2="22.5" y2="40" gradientUnits="userSpaceOnUse"><stop offset="0" stop-color="#5b5750"/><stop offset=".45" stop-color="#36332d"/><stop offset="1" stop-color="#1a1814"/></linearGradient></defs><g fill="url(#pb)" fill-rule="evenodd" stroke="#15130f" stroke-linecap="round" stroke-linejoin="round" stroke-width="1.5"><path stroke-linecap="butt" d="M9 39h27v-3H9zm3.5-7 1.5-2.5h17l1.5 2.5zm-.5 4v-4h21v4z"/><path stroke-linecap="butt" stroke-linejoin="miter" d="M14 29.5v-13h17v13z"/><path stroke-linecap="butt" d="M14 16.5 11 14h23l-3 2.5zM11 14V9h4v2h5V9h5v2h5V9h4v5z"/><path fill="none" stroke="#d7d0be" stroke-linejoin="miter" stroke-width="1" d="M12 35.5h21m-20-4h19m-18-2h17m-17-13h17M11 14h23"/></g></svg>