<svg xmlns="http://www.w3.org/2000/svg" viewBox="0 0 45 45"><defs><linearGradient id="pw" x1="22.5" y1="5" x2="22.5" y2="40" gradientUnits="userSpaceOnUse"><stop offset="0" stop-color="#fffef8"/><stop offset=".55" stop-color="#f1ebda"/><stop offset="1" stop-color="#cbc1a4"/></linearGradient><linearGradient id="pb" x1="22.5" y1="5" x2="22.5" y2="40" gradientUnits="userSpaceOnUse"><stop offset="0" stop-color="#5b5750"/><stop offset=".45" stop-color="#36332d"/><stop offset="1" stop-color="#1a1814"/></linearGradient></defs><path fill="url(#pw)" stroke="#3f3a2f" stroke-linecap="round" stroke-width="1.5" d="M22.5 9c-2.21 0-4 1.79-4 4 0 .89.29 1.71.78 2.38C17.33 16.5 16 18.59 16 21c0 2.03.94 3.84 2.41 5.03-3 1.06-7.41 5.55-7.41 13.47h23c0-7.92-4.41-12.41-7.41-13.47 1.47-1.19 2.41-3 2.41-5.03 0-2.41-1.33-4.5-3.28-5.62.49-.67.78-1.49.78-2.38 0-2.21-1.79-4-4-4z"/></svg>