<svg xmlns="http://www.w3.org/2000/svg" viewBox="0 0 45 45"><defs><linearGradient id="pw" x1="22.5" y1="5" x2="22.5" y2="40" gradientUnits="userSpaceOnUse"><stop offset="0" stop-color="#fffef8"/><stop offset=".55" stop-color="#f1ebda"/><stop offset="1" stop-color="#cbc1a4"/></linearGradient><linearGradient id="pb" x1="22.5" y1="5" x2="22.5" y2="40" gradientUnits="userSpaceOnUse"><stop offset="0" stop-color="#5b5750"/><stop offset=".45" stop-color="#36332d"/><stop offset="1" stop-color="#1a1814"/></linearGradient></defs><g fill="url(#pw)" fill-rule="evenodd" stroke="#3f3a2f" stroke-linecap="round" stroke-linejoin="round" stroke-width="1.5"><path d="M8 12a2 2 0 1 1-4 0 2 2 0 1 1 4 0m16.5-4.5a2 2 0 1 1-4 0 2 2 0 1 1 4 0M41 12a2 2 0 1 1-4 0 2 2 0 1 1 4 0M16 8.5a2 2 0 1 1-4 0 2 2 0 1 1 4 0M33 9a2 2 0 1 1-4 0 2 2 0 1 1 4 0"/><path stroke-linecap="butt" d="M9 26c8.5-1.5 21-1.5 27 0l2-12-7 11V11l-5.5 13.5-3-15-3 15-5.5-14V25L7 14z"/><path stroke-linecap="butt" d="M9 26c0 2 1.5 2 2.5 4 1 1.5 1 1 .5 3.5-1.5 1-1.5 2.5-1.5 2.5-1.5 1.5.5 2.5.5 2.5 6.5 1 16.5 1 23 0 0 0 1.5-1 0-2.5 0 0 .5-1.5-1-2.5-.5-2.5-.5-2 .5-3.5 1-2 2.5-2 2.5-4-8.5-1.5-18.5-1.5-27 0z"/><path fill="none" d="M11.5 30c3.5-1 18.5-1 22 0M12 33.5c6-1 15-1 21 0"/></g></svg>