<svg xmlns="http://www.w3.org/2000/svg" viewBox="0 0 45 45"><defs><linearGradient id="sw" x1="12" y1="2" x2="32" y2="43" gradientUnits="userSpaceOnUse"><stop offset="0" stop-color="#fffef9"/><stop offset=".35" stop-color="#f6f1e3"/><stop offset=".7" stop-color="#e4dcc4"/><stop offset="1" stop-color="#c4b894"/></linearGradient><linearGradient id="sb" x1="12" y1="2" x2="32" y2="43" gradientUnits="userSpaceOnUse"><stop offset="0" stop-color="#615c54"/><stop offset=".4" stop-color="#3c3933"/><stop offset=".75" stop-color="#262420"/><stop offset="1" stop-color="#141210"/></linearGradient><radialGradient id="spec" cx=".5" cy=".5" r=".5"><stop offset="0" stop-color="#fff" stop-opacity=".9"/><stop offset=".55" stop-color="#fff" stop-opacity=".28"/><stop offset="1" stop-color="#fff" stop-opacity="0"/></radialGradient><radialGradient id="ao" cx=".5" cy=".5" r=".5"><stop offset="0" stop-color="#000" stop-opacity=".5"/><stop offset="1" stop-color="#000" stop-opacity="0"/></radialGradient></defs><g fill="none" fill-rule="evenodd" stroke="#15130f" stroke-linecap="round" stroke-linejoin="round" stroke-width="1.5"><g fill="url(#sb)" stroke-linecap="butt"><path d="M9 36c3.4-1 10.1.4 13.5-2 3.4 2.4 10.1 1 13.5 2 0 0 1.6.5 3 2-.7 1-1.6 1-3 .5-3.4-1-10.1.5-13.5-1-3.4 1.5-10.1 0-13.5 1-1.4.5-2.3.5-3-.5 1.4-2 3-2 3-2z"/><path d="M15 32c2.5 2.5 12.5 2.5 15 0 .5-1.5 0-2 0-2 0-2.5-2.5-4-2.5-4 5.5-1.5 6-11.5-5-15.5-11 4-10.5 14-5 15.5 0 0-2.5 1.5-2.5 4 0 0-.5.5 0 2z"/><path d="M25 8a2.5 2.5 0 1 1-5 0 2.5 2.5 0 1 1 5 0z"/></g><path stroke="#d7d0be" stroke-linejoin="miter" d="M17.5 26h10M15 30h15m-7.5-14.5v5M20 18h5"/></g><g aria-hidden="true"><ellipse cx="21.8" cy="7.3" rx="1.3" ry="1.1" fill="url(#spec)" opacity="0.48"/><ellipse cx="20.2" cy="15.5" rx="2.6" ry="3.6" fill="url(#spec)" opacity="0.2" transform="rotate(-12 20.2 15.5)"/></g></svg>