<svg xmlns="http://www.w3.org/2000/svg" viewBox="0 0 45 45"><defs><linearGradient id="sw" x1="12" y1="2" x2="32" y2="43" gradientUnits="userSpaceOnUse"><stop offset="0" stop-color="#fffef9"/><stop offset=".35" stop-color="#f6f1e3"/><stop offset=".7" stop-color="#e4dcc4"/><stop offset="1" stop-color="#c4b894"/></linearGradient><linearGradient id="sb" x1="12" y1="2" x2="32" y2="43" gradientUnits="userSpaceOnUse"><stop offset="0" stop-color="#615c54"/><stop offset=".4" stop-color="#3c3933"/><stop offset=".75" stop-color="#262420"/><stop offset="1" stop-color="#141210"/></linearGradient><radialGradient id="spec" cx=".5" cy=".5" r=".5"><stop offset="0" stop-color="#fff" stop-opacity=".9"/><stop offset=".55" stop-color="#fff" stop-opacity=".28"/><stop offset="1" stop-color="#fff" stop-opacity="0"/></radialGradient><radialGradient id="ao" cx=".5" cy=".5" r=".5"><stop offset="0" stop-color="#000" stop-opacity=".5"/><stop offset="1" stop-color="#000" stop-opacity="0"/></radialGradient></defs><path fill="url(#sb)" stroke="#15130f" stroke-linecap="round" stroke-width="1.5" d="M22.5 9a4 4 0 0 0-3.22 6.38 6.48 6.48 0 0 0-.87 10.65c-3 1.06-7.41 5.55-7.41 13.47h23c0-7.92-4.41-12.41-7.41-13.47a6.46 6.46 0 0 0-.87-10.65A4.01 4.01 0 0 0 22.5 9z"/><g aria-hidden="true"><ellipse cx="21" cy="11.7" rx="2.5" ry="2.1" fill="url(#spec)" opacity="0.42"/><ellipse cx="19.8" cy="19.5" rx="3.2" ry="2" fill="url(#spec)" opacity="0.16" transform="rotate(-18 19.8 19.5)"/></g></svg>