<svg xmlns="http://www.w3.org/2000/svg" viewBox="0 0 45 45"><defs><linearGradient id="sw" x1="12" y1="2" x2="32" y2="43" gradientUnits="userSpaceOnUse"><stop offset="0" stop-color="#fffef9"/><stop offset=".35" stop-color="#f6f1e3"/><stop offset=".7" stop-color="#e4dcc4"/><stop offset="1" stop-color="#c4b894"/></linearGradient><linearGradient id="sb" x1="12" y1="2" x2="32" y2="43" gradientUnits="userSpaceOnUse"><stop offset="0" stop-color="#615c54"/><stop offset=".4" stop-color="#3c3933"/><stop offset=".75" stop-color="#262420"/><stop offset="1" stop-color="#141210"/></linearGradient><radialGradient id="spec" cx=".5" cy=".5" r=".5"><stop offset="0" stop-color="#fff" stop-opacity=".9"/><stop offset=".55" stop-color="#fff" stop-opacity=".28"/><stop offset="1" stop-color="#fff" stop-opacity="0"/></radialGradient><radialGradient id="ao" cx=".5" cy=".5" r=".5"><stop offset="0" stop-color="#000" stop-opacity=".5"/><stop offset="1" stop-color="#000" stop-opacity="0"/></radialGradient></defs><g fill="url(#sb)" fill-rule="evenodd" stroke="#15130f" stroke-linecap="round" stroke-linejoin="round" stroke-width="1.5"><g fill="#26231e" stroke="none"><circle cx="6" cy="12" r="2.75"/><circle cx="14" cy="9" r="2.75"/><circle cx="22.5" cy="8" r="2.75"/><circle cx="31" cy="9" r="2.75"/><circle cx="39" cy="12" r="2.75"/></g><path stroke-linecap="butt" d="M9 26c8.5-1.5 21-1.5 27 0l2.5-12.5L31 25l-.3-14.1-5.2 13.6-3-14.5-3 14.5-5.2-13.6L14 25 6.5 13.5z"/><path stroke-linecap="butt" d="M9 26c0 2 1.5 2 2.5 4 1 1.5 1 1 .5 3.5-1.5 1-1.5 2.5-1.5 2.5-1.5 1.5.5 2.5.5 2.5 6.5 1 16.5 1 23 0 0 0 1.5-1 0-2.5 0 0 .5-1.5-1-2.5-.5-2.5-.5-2 .5-3.5 1-2 2.5-2 2.5-4-8.5-1.5-18.5-1.5-27 0z"/><path fill="none" stroke-linecap="butt" d="M11 38.5a35 35 1 0 0 23 0"/><path fill="none" stroke="#d7d0be" d="M11 29a35 35 1 0 1 23 0m-21.5 2.5h20m-21 3a35 35 1 0 0 22 0m-23 3a35 35 1 0 0 24 0"/></g><g aria-hidden="true"><ellipse cx="5.1" cy="11" rx="1.4" ry="1.2" fill="url(#spec)" opacity="0.62"/><ellipse cx="13.1" cy="8" rx="1.4" ry="1.2" fill="url(#spec)" opacity="0.62"/><ellipse cx="21.6" cy="7" rx="1.4" ry="1.2" fill="url(#spec)" opacity="0.62"/><ellipse cx="30.1" cy="8" rx="1.4" ry="1.2" fill="url(#spec)" opacity="0.62"/><ellipse cx="38.1" cy="11" rx="1.4" ry="1.2" fill="url(#spec)" opacity="0.62"/><ellipse cx="22.3" cy="19" rx="1.5" ry="3.4" fill="url(#spec)" opacity="0.15" transform="rotate(-8 22.3 19)"/></g></svg>