<svg xmlns="http://www.w3.org/2000/svg" viewBox="0 0 45 45"><defs><linearGradient id="sw" x1="12" y1="2" x2="32" y2="43" gradientUnits="userSpaceOnUse"><stop offset="0" stop-color="#fffef9"/><stop offset=".35" stop-color="#f6f1e3"/><stop offset=".7" stop-color="#e4dcc4"/><stop offset="1" stop-color="#c4b894"/></linearGradient><linearGradient id="sb" x1="12" y1="2" x2="32" y2="43" gradientUnits="userSpaceOnUse"><stop offset="0" stop-color="#615c54"/><stop offset=".4" stop-color="#3c3933"/><stop offset=".75" stop-color="#262420"/><stop offset="1" stop-color="#141210"/></linearGradient><radialGradient id="spec" cx=".5" cy=".5" r=".5"><stop offset="0" stop-color="#fff" stop-opacity=".9"/><stop offset=".55" stop-color="#fff" stop-opacity=".28"/><stop offset="1" stop-color="#fff" stop-opacity="0"/></radialGradient><radialGradient id="ao" cx=".5" cy=".5" r=".5"><stop offset="0" stop-color="#000" stop-opacity=".5"/><stop offset="1" stop-color="#000" stop-opacity="0"/></radialGradient></defs><g fill="url(#sb)" fill-rule="evenodd" stroke="#15130f" stroke-linecap="round" stroke-linejoin="round" stroke-width="1.5"><path stroke-linecap="butt" d="M9 39h27v-3H9zm3.5-7 1.5-2.5h17l1.5 2.5zm-.5 4v-4h21v4z"/><path stroke-linecap="butt" stroke-linejoin="miter" d="M14 29.5v-13h17v13z"/><path stroke-linecap="butt" d="M14 16.5 11 14h23l-3 2.5zM11 14V9h4v2h5V9h5v2h5V9h4v5z"/><path fill="none" stroke="#d7d0be" stroke-linejoin="miter" stroke-width="1" d="M12 35.5h21m-20-4h19m-18-2h17m-17-13h17M11 14h23"/></g><g aria-hidden="true"><ellipse cx="20" cy="18.6" rx="5.5" ry="1.7" fill="url(#spec)" opacity="0.17"/><ellipse cx="17.5" cy="24.5" rx="2.4" ry="5" fill="url(#spec)" opacity="0.12"/></g></svg>