<svg xmlns="http://www.w3.org/2000/svg" viewBox="0 0 45 45"><defs><linearGradient id="sw" x1="12" y1="2" x2="32" y2="43" gradientUnits="userSpaceOnUse"><stop offset="0" stop-color="#fffef9"/><stop offset=".35" stop-color="#f6f1e3"/><stop offset=".7" stop-color="#e4dcc4"/><stop offset="1" stop-color="#c4b894"/></linearGradient><linearGradient id="sb" x1="12" y1="2" x2="32" y2="43" gradientUnits="userSpaceOnUse"><stop offset="0" stop-color="#615c54"/><stop offset=".4" stop-color="#3c3933"/><stop offset=".75" stop-color="#262420"/><stop offset="1" stop-color="#141210"/></linearGradient><radialGradient id="spec" cx=".5" cy=".5" r=".5"><stop offset="0" stop-color="#fff" stop-opacity=".9"/><stop offset=".55" stop-color="#fff" stop-opacity=".28"/><stop offset="1" stop-color="#fff" stop-opacity="0"/></radialGradient><radialGradient id="ao" cx=".5" cy=".5" r=".5"><stop offset="0" stop-color="#000" stop-opacity=".5"/><stop offset="1" stop-color="#000" stop-opacity="0"/></radialGradient></defs><g fill="none" fill-rule="evenodd" stroke="#3f3a2f" stroke-linecap="round" stroke-linejoin="round" stroke-width="1.5"><path fill="url(#sw)" d="M22 10c10.5 1 16.5 8 16 29H15c0-9 10-6.5 8-21"/><path fill="url(#sw)" d="M24 18c.38 2.91-5.55 7.37-8 9-3 2-2.82 4.34-5 4-1.042-.94 1.41-3.04 0-3-1 0 .19 1.23-1 2-1 0-4.003 1-4-4 0-2 6-12 6-12s1.89-1.9 2-3.5c-.73-.994-.5-2-.5-3 1-1 3 2.5 3 2.5h2s.78-1.992 2.5-3c1 0 1 3 1 3"/><path fill="#3f3a2f" d="M9.5 25.5a.5.5 0 1 1-1 0 .5.5 0 1 1 1 0m5.433-9.75a.5 1.5 30 1 1-.866-.5.5 1.5 30 1 1 .866.5"/></g><g aria-hidden="true"><ellipse cx="26.5" cy="11.4" rx="2" ry="1" fill="url(#spec)" opacity="0.22" transform="rotate(-18 26.5 11.4)"/><ellipse cx="26" cy="20.5" rx="2" ry="4.5" fill="url(#spec)" opacity="0.18" transform="rotate(16 26 20.5)"/><ellipse cx="25.5" cy="38.2" rx="10.5" ry="1.7" fill="url(#ao)" opacity="0.15"/></g></svg>