<svg xmlns="http://www.w3.org/2000/svg" viewBox="0 0 45 45"><defs><linearGradient id="sw" x1="12" y1="2" x2="32" y2="43" gradientUnits="userSpaceOnUse"><stop offset="0" stop-color="#fffef9"/><stop offset=".35" stop-color="#f6f1e3"/><stop offset=".7" stop-color="#e4dcc4"/><stop offset="1" stop-color="#c4b894"/></linearGradient><linearGradient id="sb" x1="12" y1="2" x2="32" y2="43" gradientUnits="userSpaceOnUse"><stop offset="0" stop-color="#615c54"/><stop offset=".4" stop-color="#3c3933"/><stop offset=".75" stop-color="#262420"/><stop offset="1" stop-color="#141210"/></linearGradient><radialGradient id="spec" cx=".5" cy=".5" r=".5"><stop offset="0" stop-color="#fff" stop-opacity=".9"/><stop offset=".55" stop-color="#fff" stop-opacity=".28"/><stop offset="1" stop-color="#fff" stop-opacity="0"/></radialGradient><radialGradient id="ao" cx=".5" cy=".5" r=".5"><stop offset="0" stop-color="#000" stop-opacity=".5"/><stop offset="1" stop-color="#000" stop-opacity="0"/></radialGradient></defs><path fill="url(#sw)" stroke="#3f3a2f" stroke-linecap="round" stroke-width="1.5" d="M22.5 9c-2.21 0-4 1.79-4 4 0 .89.29 1.71.78 2.38C17.33 16.5 16 18.59 16 21c0 2.03.94 3.84 2.41 5.03-3 1.06-7.41 5.55-7.41 13.47h23c0-7.92-4.41-12.41-7.41-13.47 1.47-1.19 2.41-3 2.41-5.03 0-2.41-1.33-4.5-3.28-5.62.49-.67.78-1.49.78-2.38 0-2.21-1.79-4-4-4z"/><g aria-hidden="true"><ellipse cx="21" cy="11.7" rx="2.5" ry="2.1" fill="url(#spec)" opacity="0.5"/><ellipse cx="19.8" cy="19.5" rx="3.2" ry="2" fill="url(#spec)" opacity="0.22" transform="rotate(-18 19.8 19.5)"/><ellipse cx="22.5" cy="38" rx="9.5" ry="1.8" fill="url(#ao)" opacity="0.16"/></g></svg>