<svg xmlns="http://www.w3.org/2000/svg" viewBox="0 0 45 45"><defs><linearGradient id="sw" x1="12" y1="2" x2="32" y2="43" gradientUnits="userSpaceOnUse"><stop offset="0" stop-color="#fffef9"/><stop offset=".35" stop-color="#f6f1e3"/><stop offset=".7" stop-color="#e4dcc4"/><stop offset="1" stop-color="#c4b894"/></linearGradient><linearGradient id="sb" x1="12" y1="2" x2="32" y2="43" gradientUnits="userSpaceOnUse"><stop offset="0" stop-color="#615c54"/><stop offset=".4" stop-color="#3c3933"/><stop offset=".75" stop-color="#262420"/><stop offset="1" stop-color="#141210"/></linearGradient><radialGradient id="spec" cx=".5" cy=".5" r=".5"><stop offset="0" stop-color="#fff" stop-opacity=".9"/><stop offset=".55" stop-color="#fff" stop-opacity=".28"/><stop offset="1" stop-color="#fff" stop-opacity="0"/></radialGradient><radialGradient id="ao" cx=".5" cy=".5" r=".5"><stop offset="0" stop-color="#000" stop-opacity=".5"/><stop offset="1" stop-color="#000" stop-opacity="0"/></radialGradient></defs><g fill="url(#sw)" fill-rule="evenodd" stroke="#3f3a2f" stroke-linecap="round" stroke-linejoin="round" stroke-width="1.5"><path d="M8 12a2 2 0 1 1-4 0 2 2 0 1 1 4 0m16.5-4.5a2 2 0 1 1-4 0 2 2 0 1 1 4 0M41 12a2 2 0 1 1-4 0 2 2 0 1 1 4 0M16 8.5a2 2 0 1 1-4 0 2 2 0 1 1 4 0M33 9a2 2 0 1 1-4 0 2 2 0 1 1 4 0"/><path stroke-linecap="butt" d="M9 26c8.5-1.5 21-1.5 27 0l2-12-7 11V11l-5.5 13.5-3-15-3 15-5.5-14V25L7 14z"/><path stroke-linecap="butt" d="M9 26c0 2 1.5 2 2.5 4 1 1.5 1 1 .5 3.5-1.5 1-1.5 2.5-1.5 2.5-1.5 1.5.5 2.5.5 2.5 6.5 1 16.5 1 23 0 0 0 1.5-1 0-2.5 0 0 .5-1.5-1-2.5-.5-2.5-.5-2 .5-3.5 1-2 2.5-2 2.5-4-8.5-1.5-18.5-1.5-27 0z"/><path fill="none" d="M11.5 30c3.5-1 18.5-1 22 0M12 33.5c6-1 15-1 21 0"/></g><g aria-hidden="true"><ellipse cx="5.1" cy="11" rx="1.4" ry="1.2" fill="url(#spec)" opacity="0.6"/><ellipse cx="13.1" cy="8" rx="1.4" ry="1.2" fill="url(#spec)" opacity="0.6"/><ellipse cx="21.6" cy="7" rx="1.4" ry="1.2" fill="url(#spec)" opacity="0.6"/><ellipse cx="30.1" cy="8" rx="1.4" ry="1.2" fill="url(#spec)" opacity="0.6"/><ellipse cx="38.1" cy="11" rx="1.4" ry="1.2" fill="url(#spec)" opacity="0.6"/><ellipse cx="22.3" cy="19" rx="1.5" ry="3.4" fill="url(#spec)" opacity="0.2" transform="rotate(-8 22.3 19)"/><ellipse cx="22.5" cy="38.2" rx="12" ry="1.7" fill="url(#ao)" opacity="0.15"/></g></svg>