<svg xmlns="http://www.w3.org/2000/svg" viewBox="0 0 45 45"><defs><linearGradient id="sw" x1="12" y1="2" x2="32" y2="43" gradientUnits="userSpaceOnUse"><stop offset="0" stop-color="#fffef9"/><stop offset=".35" stop-color="#f6f1e3"/><stop offset=".7" stop-color="#e4dcc4"/><stop offset="1" stop-color="#c4b894"/></linearGradient><linearGradient id="sb" x1="12" y1="2" x2="32" y2="43" gradientUnits="userSpaceOnUse"><stop offset="0" stop-color="#615c54"/><stop offset=".4" stop-color="#3c3933"/><stop offset=".75" stop-color="#262420"/><stop offset="1" stop-color="#141210"/></linearGradient><radialGradient id="spec" cx=".5" cy=".5" r=".5"><stop offset="0" stop-color="#fff" stop-opacity=".9"/><stop offset=".55" stop-color="#fff" stop-opacity=".28"/><stop offset="1" stop-color="#fff" stop-opacity="0"/></radialGradient><radialGradient id="ao" cx=".5" cy=".5" r=".5"><stop offset="0" stop-color="#000" stop-opacity=".5"/><stop offset="1" stop-color="#000" stop-opacity="0"/></radialGradient></defs><g fill="url(#sw)" fill-rule="evenodd" stroke="#3f3a2f" stroke-linecap="round" stroke-linejoin="round" stroke-width="1.5"><path stroke-linecap="butt" d="M9 39h27v-3H9zm3-3v-4h21v4zm-1-22V9h4v2h5V9h5v2h5V9h4v5"/><path d="m34 14-3 3H14l-3-3"/><path stroke-linecap="butt" stroke-linejoin="miter" d="M31 17v12.5H14V17"/><path d="m31 29.5 1.5 2.5h-20l1.5-2.5"/><path fill="none" stroke-linejoin="miter" d="M11 14h23"/></g><g aria-hidden="true"><ellipse cx="20" cy="18.6" rx="5.5" ry="1.7" fill="url(#spec)" opacity="0.22"/><ellipse cx="17.5" cy="24.5" rx="2.4" ry="5" fill="url(#spec)" opacity="0.16"/><ellipse cx="22.5" cy="38.3" rx="11" ry="1.7" fill="url(#ao)" opacity="0.15"/></g></svg>